<mxfile host="app.diagrams.net" modified="2024-03-23T02:03:05.592Z" agent="Mozilla/5.0 (Windows NT 10.0; Win64; x64) AppleWebKit/537.36 (KHTML, like Gecko) Chrome/123.0.0.0 Safari/537.36" etag="4RLUbSrZf-a_zrJoQO8r" version="24.0.7" type="github">
  <diagram id="C5RBs43oDa-KdzZeNtuy" name="Page-1">
    <mxGraphModel dx="1195" dy="622" grid="1" gridSize="10" guides="1" tooltips="1" connect="1" arrows="1" fold="1" page="1" pageScale="1" pageWidth="827" pageHeight="1169" math="0" shadow="0">
      <root>
        <mxCell id="WIyWlLk6GJQsqaUBKTNV-0" />
        <mxCell id="WIyWlLk6GJQsqaUBKTNV-1" parent="WIyWlLk6GJQsqaUBKTNV-0" />
        <mxCell id="hxUd50kTatVPAI0-RMPV-29" style="edgeStyle=orthogonalEdgeStyle;rounded=0;orthogonalLoop=1;jettySize=auto;html=1;" edge="1" parent="WIyWlLk6GJQsqaUBKTNV-1" source="zkfFHV4jXpPFQw0GAbJ--0" target="hxUd50kTatVPAI0-RMPV-25">
          <mxGeometry relative="1" as="geometry">
            <Array as="points">
              <mxPoint x="80" y="512" />
              <mxPoint x="80" y="512" />
            </Array>
          </mxGeometry>
        </mxCell>
        <mxCell id="zkfFHV4jXpPFQw0GAbJ--0" value="Jugador" style="swimlane;fontStyle=2;align=center;verticalAlign=top;childLayout=stackLayout;horizontal=1;startSize=26;horizontalStack=0;resizeParent=1;resizeLast=0;collapsible=1;marginBottom=0;rounded=0;shadow=0;strokeWidth=1;" parent="WIyWlLk6GJQsqaUBKTNV-1" vertex="1">
          <mxGeometry x="10" y="532" width="160" height="138" as="geometry">
            <mxRectangle x="230" y="140" width="160" height="26" as="alternateBounds" />
          </mxGeometry>
        </mxCell>
        <mxCell id="zkfFHV4jXpPFQw0GAbJ--4" value="" style="line;html=1;strokeWidth=1;align=left;verticalAlign=middle;spacingTop=-1;spacingLeft=3;spacingRight=3;rotatable=0;labelPosition=right;points=[];portConstraint=eastwest;" parent="zkfFHV4jXpPFQw0GAbJ--0" vertex="1">
          <mxGeometry y="26" width="160" height="8" as="geometry" />
        </mxCell>
        <mxCell id="hxUd50kTatVPAI0-RMPV-13" style="edgeStyle=orthogonalEdgeStyle;rounded=0;orthogonalLoop=1;jettySize=auto;html=1;" edge="1" parent="WIyWlLk6GJQsqaUBKTNV-1" source="hxUd50kTatVPAI0-RMPV-0" target="hxUd50kTatVPAI0-RMPV-7">
          <mxGeometry relative="1" as="geometry">
            <Array as="points">
              <mxPoint x="270" y="782" />
              <mxPoint x="270" y="782" />
            </Array>
          </mxGeometry>
        </mxCell>
        <mxCell id="hxUd50kTatVPAI0-RMPV-0" value="Club" style="swimlane;fontStyle=2;align=center;verticalAlign=top;childLayout=stackLayout;horizontal=1;startSize=26;horizontalStack=0;resizeParent=1;resizeLast=0;collapsible=1;marginBottom=0;rounded=0;shadow=0;strokeWidth=1;" vertex="1" parent="WIyWlLk6GJQsqaUBKTNV-1">
          <mxGeometry x="10" y="732" width="160" height="110" as="geometry">
            <mxRectangle x="230" y="140" width="160" height="26" as="alternateBounds" />
          </mxGeometry>
        </mxCell>
        <mxCell id="hxUd50kTatVPAI0-RMPV-1" value="" style="line;html=1;strokeWidth=1;align=left;verticalAlign=middle;spacingTop=-1;spacingLeft=3;spacingRight=3;rotatable=0;labelPosition=right;points=[];portConstraint=eastwest;" vertex="1" parent="hxUd50kTatVPAI0-RMPV-0">
          <mxGeometry y="26" width="160" height="8" as="geometry" />
        </mxCell>
        <mxCell id="hxUd50kTatVPAI0-RMPV-4" style="edgeStyle=orthogonalEdgeStyle;rounded=0;orthogonalLoop=1;jettySize=auto;html=1;fillColor=#f8cecc;strokeColor=#b85450;" edge="1" parent="WIyWlLk6GJQsqaUBKTNV-1" source="hxUd50kTatVPAI0-RMPV-2" target="hxUd50kTatVPAI0-RMPV-3">
          <mxGeometry relative="1" as="geometry" />
        </mxCell>
        <mxCell id="hxUd50kTatVPAI0-RMPV-2" value="Actor" style="text;html=1;align=center;verticalAlign=middle;whiteSpace=wrap;rounded=0;fillColor=#f8cecc;strokeColor=#b85450;" vertex="1" parent="WIyWlLk6GJQsqaUBKTNV-1">
          <mxGeometry x="10" y="870" width="60" height="30" as="geometry" />
        </mxCell>
        <mxCell id="hxUd50kTatVPAI0-RMPV-3" value="participante" style="text;html=1;align=center;verticalAlign=middle;whiteSpace=wrap;rounded=0;fillColor=#f8cecc;strokeColor=#b85450;" vertex="1" parent="WIyWlLk6GJQsqaUBKTNV-1">
          <mxGeometry x="10" y="924" width="60" height="30" as="geometry" />
        </mxCell>
        <mxCell id="hxUd50kTatVPAI0-RMPV-6" value="1..*" style="text;html=1;align=center;verticalAlign=middle;whiteSpace=wrap;rounded=0;" vertex="1" parent="WIyWlLk6GJQsqaUBKTNV-1">
          <mxGeometry x="65" y="664" width="30" height="30" as="geometry" />
        </mxCell>
        <mxCell id="hxUd50kTatVPAI0-RMPV-7" value="Inscripcion" style="swimlane;fontStyle=2;align=center;verticalAlign=top;childLayout=stackLayout;horizontal=1;startSize=26;horizontalStack=0;resizeParent=1;resizeLast=0;collapsible=1;marginBottom=0;rounded=0;shadow=0;strokeWidth=1;" vertex="1" parent="WIyWlLk6GJQsqaUBKTNV-1">
          <mxGeometry x="200" y="725" width="160" height="184" as="geometry">
            <mxRectangle x="230" y="140" width="160" height="26" as="alternateBounds" />
          </mxGeometry>
        </mxCell>
        <mxCell id="hxUd50kTatVPAI0-RMPV-19" value="listaDeJugadores" style="text;html=1;align=left;verticalAlign=middle;whiteSpace=wrap;rounded=0;" vertex="1" parent="hxUd50kTatVPAI0-RMPV-7">
          <mxGeometry y="26" width="160" height="30" as="geometry" />
        </mxCell>
        <mxCell id="hxUd50kTatVPAI0-RMPV-20" value="examenesMedicos" style="text;html=1;align=left;verticalAlign=middle;whiteSpace=wrap;rounded=0;" vertex="1" parent="hxUd50kTatVPAI0-RMPV-7">
          <mxGeometry y="56" width="160" height="30" as="geometry" />
        </mxCell>
        <mxCell id="hxUd50kTatVPAI0-RMPV-21" value="canchaHabilitado" style="text;html=1;align=left;verticalAlign=middle;whiteSpace=wrap;rounded=0;" vertex="1" parent="hxUd50kTatVPAI0-RMPV-7">
          <mxGeometry y="86" width="160" height="30" as="geometry" />
        </mxCell>
        <mxCell id="hxUd50kTatVPAI0-RMPV-8" value="" style="line;html=1;strokeWidth=1;align=left;verticalAlign=middle;spacingTop=-1;spacingLeft=3;spacingRight=3;rotatable=0;labelPosition=right;points=[];portConstraint=eastwest;" vertex="1" parent="hxUd50kTatVPAI0-RMPV-7">
          <mxGeometry y="116" width="160" height="8" as="geometry" />
        </mxCell>
        <mxCell id="hxUd50kTatVPAI0-RMPV-22" value="validarComienzoCampenato()" style="text;html=1;align=left;verticalAlign=middle;whiteSpace=wrap;rounded=0;" vertex="1" parent="hxUd50kTatVPAI0-RMPV-7">
          <mxGeometry y="124" width="160" height="30" as="geometry" />
        </mxCell>
        <mxCell id="hxUd50kTatVPAI0-RMPV-23" value="inscribir()" style="text;html=1;align=left;verticalAlign=middle;whiteSpace=wrap;rounded=0;" vertex="1" parent="hxUd50kTatVPAI0-RMPV-7">
          <mxGeometry y="154" width="160" height="30" as="geometry" />
        </mxCell>
        <mxCell id="hxUd50kTatVPAI0-RMPV-12" value="Dudas:&lt;br&gt;&amp;nbsp;&lt;div&gt;* En que casos se da la doble navegacion&lt;br&gt;&lt;br&gt;&lt;/div&gt;&lt;div&gt;* En que caso se usan patron (Transacción-Detalle de Transacción)&lt;br&gt;&lt;br&gt;*Pedir que la solucion que nos den nos den que tipos de patrones se usarian o ejemplos&lt;br&gt;&lt;br&gt;* Se me complico En&amp;nbsp;&amp;nbsp;&lt;span style=&quot;background-color: initial; text-wrap: nowrap; font-style: italic; text-align: center;&quot;&gt;DiagramacionDeCampeonato&amp;nbsp;&lt;/span&gt;&lt;span style=&quot;background-color: initial; text-wrap: nowrap; font-style: italic; text-align: center;&quot;&gt;nose si seria una&amp;nbsp;&amp;nbsp;&lt;/span&gt;&lt;span style=&quot;background-color: initial; text-wrap: nowrap; font-style: italic; text-align: center;&quot;&gt;clase&amp;nbsp;&amp;nbsp;&lt;/span&gt;&lt;span style=&quot;background-color: initial; text-wrap: nowrap; font-style: italic; text-align: center;&quot;&gt;que&amp;nbsp;&lt;/span&gt;&lt;span style=&quot;background-color: initial; text-wrap: nowrap; font-style: italic; text-align: center;&quot;&gt;crea todas las otras&lt;/span&gt;&lt;/div&gt;&lt;div&gt;&lt;span style=&quot;font-style: italic; text-align: center; text-wrap: nowrap; background-color: initial;&quot;&gt;&lt;br&gt;* y cuando dice que&amp;nbsp; cuando&amp;nbsp;&lt;/span&gt;&lt;span style=&quot;background-color: initial; text-wrap: nowrap; font-style: italic; text-align: center;&quot;&gt;se registra una partido&amp;nbsp;&lt;/span&gt;&lt;span style=&quot;background-color: initial; text-wrap: nowrap; font-style: italic; text-align: center;&quot;&gt;como&amp;nbsp;&amp;nbsp;&lt;/span&gt;&lt;span style=&quot;background-color: initial; text-wrap: nowrap; font-style: italic; text-align: center;&quot;&gt;jugando como le cambia&amp;nbsp;&lt;/span&gt;&lt;span style=&quot;background-color: initial; text-wrap: nowrap; font-style: italic; text-align: center;&quot;&gt;el&amp;nbsp;&amp;nbsp;&lt;/span&gt;&lt;span style=&quot;background-color: initial; text-wrap: nowrap; font-style: italic; text-align: center;&quot;&gt;estado al&amp;nbsp;&amp;nbsp;&lt;/span&gt;&lt;span style=&quot;background-color: initial; font-style: italic; text-align: center; text-wrap: nowrap;&quot;&gt;campeonato?&lt;/span&gt;&lt;/div&gt;&lt;div&gt;&lt;span style=&quot;font-style: italic; text-align: center; text-wrap: nowrap; background-color: initial;&quot;&gt;&lt;br&gt;* Tenia duda de la asociacion y que patron deberia seguir el de Jugador club, si grupo-participante o&amp;nbsp;&lt;/span&gt;&lt;/div&gt;&lt;div&gt;&lt;span style=&quot;font-style: italic; text-align: center; text-wrap: nowrap; background-color: initial;&quot;&gt;actor-particpante, porque en un momento del&amp;nbsp;&amp;nbsp;&lt;/span&gt;&lt;span style=&quot;background-color: initial; font-style: italic; text-align: center; text-wrap: nowrap;&quot;&gt;enuncaido dice que los jugadores pueden cambiarse&amp;nbsp;&lt;/span&gt;&lt;/div&gt;&lt;div&gt;&lt;span style=&quot;font-style: italic; text-align: center; text-wrap: nowrap; background-color: initial;&quot;&gt;de clubs pero tmb dsp dice que el club es quien&amp;nbsp;&amp;nbsp;&lt;/span&gt;&lt;span style=&quot;background-color: initial; font-style: italic; text-align: center; text-wrap: nowrap;&quot;&gt;presenta una lista de jugadores&lt;/span&gt;&lt;/div&gt;&lt;div&gt;&lt;span style=&quot;font-style: italic; text-align: center; text-wrap: nowrap; background-color: initial;&quot;&gt;&lt;br&gt;&lt;/span&gt;&lt;/div&gt;&lt;div&gt;&lt;span style=&quot;font-style: italic; text-align: center; text-wrap: nowrap; background-color: initial;&quot;&gt;* Si necesito registrar los resultados del partido y a&amp;nbsp;&amp;nbsp;&lt;/span&gt;&lt;span style=&quot;background-color: initial; font-style: italic; text-align: center; text-wrap: nowrap;&quot;&gt;partir de eso voy a la otra clase y cambio el estado de&lt;/span&gt;&lt;/div&gt;&lt;div&gt;&lt;span style=&quot;font-style: italic; text-align: center; text-wrap: nowrap; background-color: initial;&quot;&gt;las otras clases pero si necesito cancelar el campeont&amp;nbsp;&amp;nbsp;&lt;/span&gt;&lt;span style=&quot;background-color: initial; font-style: italic; text-align: center; text-wrap: nowrap;&quot;&gt;como seria la navegabildiad desde esta clase soporte&amp;nbsp;&lt;/span&gt;&lt;/div&gt;" style="shape=note;whiteSpace=wrap;html=1;backgroundOutline=1;darkOpacity=0.05;align=left;fillColor=#dae8fc;strokeColor=#6c8ebf;" vertex="1" parent="WIyWlLk6GJQsqaUBKTNV-1">
          <mxGeometry y="1180" width="600" height="270" as="geometry" />
        </mxCell>
        <mxCell id="hxUd50kTatVPAI0-RMPV-18" style="edgeStyle=orthogonalEdgeStyle;rounded=0;orthogonalLoop=1;jettySize=auto;html=1;entryX=0;entryY=0.5;entryDx=0;entryDy=0;" edge="1" parent="WIyWlLk6GJQsqaUBKTNV-1" target="hxUd50kTatVPAI0-RMPV-16">
          <mxGeometry relative="1" as="geometry">
            <mxPoint x="112.5" y="1107" as="sourcePoint" />
          </mxGeometry>
        </mxCell>
        <mxCell id="hxUd50kTatVPAI0-RMPV-15" value="Actor" style="text;html=1;align=center;verticalAlign=middle;whiteSpace=wrap;rounded=0;fillColor=#f8cecc;strokeColor=#b85450;" vertex="1" parent="WIyWlLk6GJQsqaUBKTNV-1">
          <mxGeometry x="50" y="1092" width="60" height="30" as="geometry" />
        </mxCell>
        <mxCell id="hxUd50kTatVPAI0-RMPV-16" value="&lt;span style=&quot;font-style: italic; text-wrap: nowrap;&quot;&gt;Transaccion&lt;/span&gt;" style="text;html=1;align=center;verticalAlign=middle;whiteSpace=wrap;rounded=0;fillColor=#f8cecc;strokeColor=#b85450;" vertex="1" parent="WIyWlLk6GJQsqaUBKTNV-1">
          <mxGeometry x="160" y="1092" width="70" height="30" as="geometry" />
        </mxCell>
        <mxCell id="hxUd50kTatVPAI0-RMPV-24" value="1" style="text;html=1;align=center;verticalAlign=middle;whiteSpace=wrap;rounded=0;" vertex="1" parent="WIyWlLk6GJQsqaUBKTNV-1">
          <mxGeometry x="270" y="752" width="20" height="30" as="geometry" />
        </mxCell>
        <mxCell id="hxUd50kTatVPAI0-RMPV-25" value="Estado" style="swimlane;fontStyle=2;align=center;verticalAlign=top;childLayout=stackLayout;horizontal=1;startSize=26;horizontalStack=0;resizeParent=1;resizeLast=0;collapsible=1;marginBottom=0;rounded=0;shadow=0;strokeWidth=1;" vertex="1" parent="WIyWlLk6GJQsqaUBKTNV-1">
          <mxGeometry x="20" y="330" width="160" height="124" as="geometry">
            <mxRectangle x="230" y="140" width="160" height="26" as="alternateBounds" />
          </mxGeometry>
        </mxCell>
        <mxCell id="hxUd50kTatVPAI0-RMPV-27" value="lesionado" style="text;html=1;align=left;verticalAlign=middle;whiteSpace=wrap;rounded=0;" vertex="1" parent="hxUd50kTatVPAI0-RMPV-25">
          <mxGeometry y="26" width="160" height="30" as="geometry" />
        </mxCell>
        <mxCell id="hxUd50kTatVPAI0-RMPV-28" value="inscripto" style="text;html=1;align=left;verticalAlign=middle;whiteSpace=wrap;rounded=0;" vertex="1" parent="hxUd50kTatVPAI0-RMPV-25">
          <mxGeometry y="56" width="160" height="30" as="geometry" />
        </mxCell>
        <mxCell id="hxUd50kTatVPAI0-RMPV-152" value="inhabilitado" style="text;html=1;align=left;verticalAlign=middle;whiteSpace=wrap;rounded=0;" vertex="1" parent="hxUd50kTatVPAI0-RMPV-25">
          <mxGeometry y="86" width="160" height="30" as="geometry" />
        </mxCell>
        <mxCell id="hxUd50kTatVPAI0-RMPV-26" value="" style="line;html=1;strokeWidth=1;align=left;verticalAlign=middle;spacingTop=-1;spacingLeft=3;spacingRight=3;rotatable=0;labelPosition=right;points=[];portConstraint=eastwest;" vertex="1" parent="hxUd50kTatVPAI0-RMPV-25">
          <mxGeometry y="116" width="160" height="8" as="geometry" />
        </mxCell>
        <mxCell id="hxUd50kTatVPAI0-RMPV-30" value="1" style="text;html=1;align=center;verticalAlign=middle;whiteSpace=wrap;rounded=0;" vertex="1" parent="WIyWlLk6GJQsqaUBKTNV-1">
          <mxGeometry x="90" y="448" width="20" height="30" as="geometry" />
        </mxCell>
        <mxCell id="hxUd50kTatVPAI0-RMPV-48" style="edgeStyle=orthogonalEdgeStyle;rounded=0;orthogonalLoop=1;jettySize=auto;html=1;" edge="1" parent="WIyWlLk6GJQsqaUBKTNV-1" source="hxUd50kTatVPAI0-RMPV-34">
          <mxGeometry relative="1" as="geometry">
            <mxPoint x="510" y="346" as="targetPoint" />
          </mxGeometry>
        </mxCell>
        <mxCell id="hxUd50kTatVPAI0-RMPV-118" style="edgeStyle=orthogonalEdgeStyle;rounded=0;orthogonalLoop=1;jettySize=auto;html=1;" edge="1" parent="WIyWlLk6GJQsqaUBKTNV-1" source="hxUd50kTatVPAI0-RMPV-34" target="hxUd50kTatVPAI0-RMPV-113">
          <mxGeometry relative="1" as="geometry">
            <Array as="points">
              <mxPoint x="400" y="452" />
              <mxPoint x="400" y="452" />
            </Array>
          </mxGeometry>
        </mxCell>
        <mxCell id="hxUd50kTatVPAI0-RMPV-34" value="Partido" style="swimlane;fontStyle=2;align=center;verticalAlign=top;childLayout=stackLayout;horizontal=1;startSize=26;horizontalStack=0;resizeParent=1;resizeLast=0;collapsible=1;marginBottom=0;rounded=0;shadow=0;strokeWidth=1;" vertex="1" parent="WIyWlLk6GJQsqaUBKTNV-1">
          <mxGeometry x="430" y="372" width="160" height="184" as="geometry">
            <mxRectangle x="230" y="140" width="160" height="26" as="alternateBounds" />
          </mxGeometry>
        </mxCell>
        <mxCell id="hxUd50kTatVPAI0-RMPV-35" value="cancha" style="text;html=1;align=left;verticalAlign=middle;whiteSpace=wrap;rounded=0;" vertex="1" parent="hxUd50kTatVPAI0-RMPV-34">
          <mxGeometry y="26" width="160" height="30" as="geometry" />
        </mxCell>
        <mxCell id="hxUd50kTatVPAI0-RMPV-36" value="arbitro: Arbitro" style="text;html=1;align=left;verticalAlign=middle;whiteSpace=wrap;rounded=0;" vertex="1" parent="hxUd50kTatVPAI0-RMPV-34">
          <mxGeometry y="56" width="160" height="30" as="geometry" />
        </mxCell>
        <mxCell id="hxUd50kTatVPAI0-RMPV-38" value="" style="line;html=1;strokeWidth=1;align=left;verticalAlign=middle;spacingTop=-1;spacingLeft=3;spacingRight=3;rotatable=0;labelPosition=right;points=[];portConstraint=eastwest;" vertex="1" parent="hxUd50kTatVPAI0-RMPV-34">
          <mxGeometry y="86" width="160" height="8" as="geometry" />
        </mxCell>
        <mxCell id="hxUd50kTatVPAI0-RMPV-135" value="registrarInicioDePartido()" style="text;html=1;align=left;verticalAlign=middle;whiteSpace=wrap;rounded=0;" vertex="1" parent="hxUd50kTatVPAI0-RMPV-34">
          <mxGeometry y="94" width="160" height="30" as="geometry" />
        </mxCell>
        <mxCell id="hxUd50kTatVPAI0-RMPV-126" value="registrarResultados()" style="text;html=1;align=left;verticalAlign=middle;whiteSpace=wrap;rounded=0;" vertex="1" parent="hxUd50kTatVPAI0-RMPV-34">
          <mxGeometry y="124" width="160" height="30" as="geometry" />
        </mxCell>
        <mxCell id="hxUd50kTatVPAI0-RMPV-143" value="registrarUl&lt;span style=&quot;color: rgba(0, 0, 0, 0); font-family: monospace; font-size: 0px; text-wrap: nowrap;&quot;&gt;%3CmxGraphModel%3E%3Croot%3E%3CmxCell%20id%3D%220%22%2F%3E%3CmxCell%20id%3D%221%22%20parent%3D%220%22%2F%3E%3CmxCell%20id%3D%222%22%20value%3D%22registrarResultados()%22%20style%3D%22text%3Bhtml%3D1%3Balign%3Dleft%3BverticalAlign%3Dmiddle%3BwhiteSpace%3Dwrap%3Brounded%3D0%3B%22%20vertex%3D%221%22%20parent%3D%221%22%3E%3CmxGeometry%20x%3D%22430%22%20y%3D%22488%22%20width%3D%22160%22%20height%3D%2230%22%20as%3D%22geometry%22%2F%3E%3C%2FmxCell%3E%3C%2Froot%3E%3C%2FmxGraphModel%3E&lt;/span&gt;timoPartido()" style="text;html=1;align=left;verticalAlign=middle;whiteSpace=wrap;rounded=0;" vertex="1" parent="hxUd50kTatVPAI0-RMPV-34">
          <mxGeometry y="154" width="160" height="30" as="geometry" />
        </mxCell>
        <mxCell id="hxUd50kTatVPAI0-RMPV-64" style="edgeStyle=orthogonalEdgeStyle;rounded=0;orthogonalLoop=1;jettySize=auto;html=1;" edge="1" parent="WIyWlLk6GJQsqaUBKTNV-1" source="hxUd50kTatVPAI0-RMPV-41" target="hxUd50kTatVPAI0-RMPV-60">
          <mxGeometry relative="1" as="geometry" />
        </mxCell>
        <mxCell id="hxUd50kTatVPAI0-RMPV-41" value="Arbitro" style="swimlane;fontStyle=2;align=center;verticalAlign=top;childLayout=stackLayout;horizontal=1;startSize=26;horizontalStack=0;resizeParent=1;resizeLast=0;collapsible=1;marginBottom=0;rounded=0;shadow=0;strokeWidth=1;" vertex="1" parent="WIyWlLk6GJQsqaUBKTNV-1">
          <mxGeometry x="460" y="154" width="160" height="184" as="geometry">
            <mxRectangle x="230" y="140" width="160" height="26" as="alternateBounds" />
          </mxGeometry>
        </mxCell>
        <mxCell id="hxUd50kTatVPAI0-RMPV-42" value="nombre&lt;span style=&quot;color: rgba(0, 0, 0, 0); font-family: monospace; font-size: 0px; text-wrap: nowrap;&quot;&gt;%3CmxGraphModel%3E%3Croot%3E%3CmxCell%20id%3D%220%22%2F%3E%3CmxCell%20id%3D%221%22%20parent%3D%220%22%2F%3E%3CmxCell%20id%3D%222%22%20value%3D%22Partido%22%20style%3D%22swimlane%3BfontStyle%3D2%3Balign%3Dcenter%3BverticalAlign%3Dtop%3BchildLayout%3DstackLayout%3Bhorizontal%3D1%3BstartSize%3D26%3BhorizontalStack%3D0%3BresizeParent%3D1%3BresizeLast%3D0%3Bcollapsible%3D1%3BmarginBottom%3D0%3Brounded%3D0%3Bshadow%3D0%3BstrokeWidth%3D1%3B%22%20vertex%3D%221%22%20parent%3D%221%22%3E%3CmxGeometry%20x%3D%22350%22%20y%3D%2230%22%20width%3D%22160%22%20height%3D%22184%22%20as%3D%22geometry%22%3E%3CmxRectangle%20x%3D%22230%22%20y%3D%22140%22%20width%3D%22160%22%20height%3D%2226%22%20as%3D%22alternateBounds%22%2F%3E%3C%2FmxGeometry%3E%3C%2FmxCell%3E%3CmxCell%20id%3D%223%22%20value%3D%22cancha%22%20style%3D%22text%3Bhtml%3D1%3Balign%3Dleft%3BverticalAlign%3Dmiddle%3BwhiteSpace%3Dwrap%3Brounded%3D0%3B%22%20vertex%3D%221%22%20parent%3D%222%22%3E%3CmxGeometry%20y%3D%2226%22%20width%3D%22160%22%20height%3D%2230%22%20as%3D%22geometry%22%2F%3E%3C%2FmxCell%3E%3CmxCell%20id%3D%224%22%20value%3D%22arbitro%3A%20Arbitro%22%20style%3D%22text%3Bhtml%3D1%3Balign%3Dleft%3BverticalAlign%3Dmiddle%3BwhiteSpace%3Dwrap%3Brounded%3D0%3B%22%20vertex%3D%221%22%20parent%3D%222%22%3E%3CmxGeometry%20y%3D%2256%22%20width%3D%22160%22%20height%3D%2230%22%20as%3D%22geometry%22%2F%3E%3C%2FmxCell%3E%3CmxCell%20id%3D%225%22%20value%3D%22%22%20style%3D%22line%3Bhtml%3D1%3BstrokeWidth%3D1%3Balign%3Dleft%3BverticalAlign%3Dmiddle%3BspacingTop%3D-1%3BspacingLeft%3D3%3BspacingRight%3D3%3Brotatable%3D0%3BlabelPosition%3Dright%3Bpoints%3D%5B%5D%3BportConstraint%3Deastwest%3B%22%20vertex%3D%221%22%20parent%3D%222%22%3E%3CmxGeometry%20y%3D%2286%22%20width%3D%22160%22%20height%3D%228%22%20as%3D%22geometry%22%2F%3E%3C%2FmxCell%3E%3CmxCell%20id%3D%226%22%20value%3D%22validarComienzoCampenato()%22%20style%3D%22text%3Bhtml%3D1%3Balign%3Dleft%3BverticalAlign%3Dmiddle%3BwhiteSpace%3Dwrap%3Brounded%3D0%3B%22%20vertex%3D%221%22%20parent%3D%222%22%3E%3CmxGeometry%20y%3D%2294%22%20width%3D%22160%22%20height%3D%2230%22%20as%3D%22geometry%22%2F%3E%3C%2FmxCell%3E%3CmxCell%20id%3D%227%22%20value%3D%22inscribir()%22%20style%3D%22text%3Bhtml%3D1%3Balign%3Dleft%3BverticalAlign%3Dmiddle%3BwhiteSpace%3Dwrap%3Brounded%3D0%3B%22%20vertex%3D%221%22%20parent%3D%222%22%3E%3CmxGeometry%20y%3D%22124%22%20width%3D%22160%22%20height%3D%2230%22%20as%3D%22geometry%22%2F%3E%3C%2FmxCell%3E%3C%2Froot%3E%3C%2FmxGraphModel%3E&lt;/span&gt;" style="text;html=1;align=left;verticalAlign=middle;whiteSpace=wrap;rounded=0;" vertex="1" parent="hxUd50kTatVPAI0-RMPV-41">
          <mxGeometry y="26" width="160" height="30" as="geometry" />
        </mxCell>
        <mxCell id="hxUd50kTatVPAI0-RMPV-47" value="rol:Rol" style="text;html=1;align=left;verticalAlign=middle;whiteSpace=wrap;rounded=0;" vertex="1" parent="hxUd50kTatVPAI0-RMPV-41">
          <mxGeometry y="56" width="160" height="30" as="geometry" />
        </mxCell>
        <mxCell id="hxUd50kTatVPAI0-RMPV-44" value="" style="line;html=1;strokeWidth=1;align=left;verticalAlign=middle;spacingTop=-1;spacingLeft=3;spacingRight=3;rotatable=0;labelPosition=right;points=[];portConstraint=eastwest;" vertex="1" parent="hxUd50kTatVPAI0-RMPV-41">
          <mxGeometry y="86" width="160" height="8" as="geometry" />
        </mxCell>
        <mxCell id="hxUd50kTatVPAI0-RMPV-54" style="edgeStyle=orthogonalEdgeStyle;rounded=0;orthogonalLoop=1;jettySize=auto;html=1;" edge="1" parent="WIyWlLk6GJQsqaUBKTNV-1" source="hxUd50kTatVPAI0-RMPV-53" target="zkfFHV4jXpPFQw0GAbJ--0">
          <mxGeometry relative="1" as="geometry">
            <Array as="points">
              <mxPoint x="90" y="716" />
            </Array>
          </mxGeometry>
        </mxCell>
        <mxCell id="hxUd50kTatVPAI0-RMPV-53" value="" style="rhombus;whiteSpace=wrap;html=1;" vertex="1" parent="WIyWlLk6GJQsqaUBKTNV-1">
          <mxGeometry x="75" y="713" width="20" height="19" as="geometry" />
        </mxCell>
        <mxCell id="hxUd50kTatVPAI0-RMPV-55" style="edgeStyle=orthogonalEdgeStyle;rounded=0;orthogonalLoop=1;jettySize=auto;html=1;fillColor=#f8cecc;strokeColor=#b85450;" edge="1" parent="WIyWlLk6GJQsqaUBKTNV-1" source="hxUd50kTatVPAI0-RMPV-56" target="hxUd50kTatVPAI0-RMPV-57">
          <mxGeometry relative="1" as="geometry" />
        </mxCell>
        <mxCell id="hxUd50kTatVPAI0-RMPV-56" value="Grupo" style="text;html=1;align=center;verticalAlign=middle;whiteSpace=wrap;rounded=0;fillColor=#f8cecc;strokeColor=#b85450;" vertex="1" parent="WIyWlLk6GJQsqaUBKTNV-1">
          <mxGeometry x="10" y="996" width="60" height="30" as="geometry" />
        </mxCell>
        <mxCell id="hxUd50kTatVPAI0-RMPV-57" value="Miebro" style="text;html=1;align=center;verticalAlign=middle;whiteSpace=wrap;rounded=0;fillColor=#f8cecc;strokeColor=#b85450;" vertex="1" parent="WIyWlLk6GJQsqaUBKTNV-1">
          <mxGeometry x="10" y="1050" width="60" height="30" as="geometry" />
        </mxCell>
        <mxCell id="hxUd50kTatVPAI0-RMPV-58" value="#16" style="text;html=1;align=center;verticalAlign=middle;whiteSpace=wrap;rounded=0;" vertex="1" parent="WIyWlLk6GJQsqaUBKTNV-1">
          <mxGeometry y="962" width="60" height="30" as="geometry" />
        </mxCell>
        <mxCell id="hxUd50kTatVPAI0-RMPV-59" value="#2" style="text;html=1;align=center;verticalAlign=middle;whiteSpace=wrap;rounded=0;" vertex="1" parent="WIyWlLk6GJQsqaUBKTNV-1">
          <mxGeometry y="840" width="60" height="30" as="geometry" />
        </mxCell>
        <mxCell id="hxUd50kTatVPAI0-RMPV-60" value="rol" style="swimlane;fontStyle=2;align=center;verticalAlign=top;childLayout=stackLayout;horizontal=1;startSize=26;horizontalStack=0;resizeParent=1;resizeLast=0;collapsible=1;marginBottom=0;rounded=0;shadow=0;strokeWidth=1;" vertex="1" parent="WIyWlLk6GJQsqaUBKTNV-1">
          <mxGeometry x="460" y="20" width="160" height="100" as="geometry">
            <mxRectangle x="230" y="140" width="160" height="26" as="alternateBounds" />
          </mxGeometry>
        </mxCell>
        <mxCell id="hxUd50kTatVPAI0-RMPV-61" value="nombre&lt;span style=&quot;color: rgba(0, 0, 0, 0); font-family: monospace; font-size: 0px; text-wrap: nowrap;&quot;&gt;%3CmxGraphModel%3E%3Croot%3E%3CmxCell%20id%3D%220%22%2F%3E%3CmxCell%20id%3D%221%22%20parent%3D%220%22%2F%3E%3CmxCell%20id%3D%222%22%20value%3D%22Partido%22%20style%3D%22swimlane%3BfontStyle%3D2%3Balign%3Dcenter%3BverticalAlign%3Dtop%3BchildLayout%3DstackLayout%3Bhorizontal%3D1%3BstartSize%3D26%3BhorizontalStack%3D0%3BresizeParent%3D1%3BresizeLast%3D0%3Bcollapsible%3D1%3BmarginBottom%3D0%3Brounded%3D0%3Bshadow%3D0%3BstrokeWidth%3D1%3B%22%20vertex%3D%221%22%20parent%3D%221%22%3E%3CmxGeometry%20x%3D%22350%22%20y%3D%2230%22%20width%3D%22160%22%20height%3D%22184%22%20as%3D%22geometry%22%3E%3CmxRectangle%20x%3D%22230%22%20y%3D%22140%22%20width%3D%22160%22%20height%3D%2226%22%20as%3D%22alternateBounds%22%2F%3E%3C%2FmxGeometry%3E%3C%2FmxCell%3E%3CmxCell%20id%3D%223%22%20value%3D%22cancha%22%20style%3D%22text%3Bhtml%3D1%3Balign%3Dleft%3BverticalAlign%3Dmiddle%3BwhiteSpace%3Dwrap%3Brounded%3D0%3B%22%20vertex%3D%221%22%20parent%3D%222%22%3E%3CmxGeometry%20y%3D%2226%22%20width%3D%22160%22%20height%3D%2230%22%20as%3D%22geometry%22%2F%3E%3C%2FmxCell%3E%3CmxCell%20id%3D%224%22%20value%3D%22arbitro%3A%20Arbitro%22%20style%3D%22text%3Bhtml%3D1%3Balign%3Dleft%3BverticalAlign%3Dmiddle%3BwhiteSpace%3Dwrap%3Brounded%3D0%3B%22%20vertex%3D%221%22%20parent%3D%222%22%3E%3CmxGeometry%20y%3D%2256%22%20width%3D%22160%22%20height%3D%2230%22%20as%3D%22geometry%22%2F%3E%3C%2FmxCell%3E%3CmxCell%20id%3D%225%22%20value%3D%22%22%20style%3D%22line%3Bhtml%3D1%3BstrokeWidth%3D1%3Balign%3Dleft%3BverticalAlign%3Dmiddle%3BspacingTop%3D-1%3BspacingLeft%3D3%3BspacingRight%3D3%3Brotatable%3D0%3BlabelPosition%3Dright%3Bpoints%3D%5B%5D%3BportConstraint%3Deastwest%3B%22%20vertex%3D%221%22%20parent%3D%222%22%3E%3CmxGeometry%20y%3D%2286%22%20width%3D%22160%22%20height%3D%228%22%20as%3D%22geometry%22%2F%3E%3C%2FmxCell%3E%3CmxCell%20id%3D%226%22%20value%3D%22validarComienzoCampenato()%22%20style%3D%22text%3Bhtml%3D1%3Balign%3Dleft%3BverticalAlign%3Dmiddle%3BwhiteSpace%3Dwrap%3Brounded%3D0%3B%22%20vertex%3D%221%22%20parent%3D%222%22%3E%3CmxGeometry%20y%3D%2294%22%20width%3D%22160%22%20height%3D%2230%22%20as%3D%22geometry%22%2F%3E%3C%2FmxCell%3E%3CmxCell%20id%3D%227%22%20value%3D%22inscribir()%22%20style%3D%22text%3Bhtml%3D1%3Balign%3Dleft%3BverticalAlign%3Dmiddle%3BwhiteSpace%3Dwrap%3Brounded%3D0%3B%22%20vertex%3D%221%22%20parent%3D%222%22%3E%3CmxGeometry%20y%3D%22124%22%20width%3D%22160%22%20height%3D%2230%22%20as%3D%22geometry%22%2F%3E%3C%2FmxCell%3E%3C%2Froot%3E%3C%2FmxGraphModel%3E&lt;/span&gt;" style="text;html=1;align=left;verticalAlign=middle;whiteSpace=wrap;rounded=0;" vertex="1" parent="hxUd50kTatVPAI0-RMPV-60">
          <mxGeometry y="26" width="160" height="30" as="geometry" />
        </mxCell>
        <mxCell id="hxUd50kTatVPAI0-RMPV-63" value="" style="line;html=1;strokeWidth=1;align=left;verticalAlign=middle;spacingTop=-1;spacingLeft=3;spacingRight=3;rotatable=0;labelPosition=right;points=[];portConstraint=eastwest;" vertex="1" parent="hxUd50kTatVPAI0-RMPV-60">
          <mxGeometry y="56" width="160" height="8" as="geometry" />
        </mxCell>
        <mxCell id="hxUd50kTatVPAI0-RMPV-66" value="itemEspeficico" style="text;html=1;align=center;verticalAlign=middle;whiteSpace=wrap;rounded=0;fillColor=#f8cecc;strokeColor=#b85450;" vertex="1" parent="WIyWlLk6GJQsqaUBKTNV-1">
          <mxGeometry x="355" y="20" width="80" height="30" as="geometry" />
        </mxCell>
        <mxCell id="hxUd50kTatVPAI0-RMPV-68" style="edgeStyle=orthogonalEdgeStyle;rounded=0;orthogonalLoop=1;jettySize=auto;html=1;" edge="1" parent="WIyWlLk6GJQsqaUBKTNV-1" source="hxUd50kTatVPAI0-RMPV-67" target="hxUd50kTatVPAI0-RMPV-66">
          <mxGeometry relative="1" as="geometry" />
        </mxCell>
        <mxCell id="hxUd50kTatVPAI0-RMPV-67" value="item" style="text;html=1;align=center;verticalAlign=middle;whiteSpace=wrap;rounded=0;fillColor=#f8cecc;strokeColor=#b85450;" vertex="1" parent="WIyWlLk6GJQsqaUBKTNV-1">
          <mxGeometry x="365" y="104" width="60" height="30" as="geometry" />
        </mxCell>
        <mxCell id="hxUd50kTatVPAI0-RMPV-69" value="1" style="text;html=1;align=center;verticalAlign=middle;whiteSpace=wrap;rounded=0;" vertex="1" parent="WIyWlLk6GJQsqaUBKTNV-1">
          <mxGeometry x="550" y="120" width="20" height="30" as="geometry" />
        </mxCell>
        <mxCell id="hxUd50kTatVPAI0-RMPV-70" value="1..*" style="text;html=1;align=center;verticalAlign=middle;whiteSpace=wrap;rounded=0;" vertex="1" parent="WIyWlLk6GJQsqaUBKTNV-1">
          <mxGeometry x="515" y="340" width="20" height="30" as="geometry" />
        </mxCell>
        <mxCell id="hxUd50kTatVPAI0-RMPV-71" value="#11" style="text;html=1;align=center;verticalAlign=middle;whiteSpace=wrap;rounded=0;" vertex="1" parent="WIyWlLk6GJQsqaUBKTNV-1">
          <mxGeometry x="340" y="70" width="30" height="30" as="geometry" />
        </mxCell>
        <mxCell id="hxUd50kTatVPAI0-RMPV-76" style="edgeStyle=orthogonalEdgeStyle;rounded=0;orthogonalLoop=1;jettySize=auto;html=1;" edge="1" parent="WIyWlLk6GJQsqaUBKTNV-1" source="hxUd50kTatVPAI0-RMPV-72" target="hxUd50kTatVPAI0-RMPV-7">
          <mxGeometry relative="1" as="geometry" />
        </mxCell>
        <mxCell id="hxUd50kTatVPAI0-RMPV-82" style="edgeStyle=orthogonalEdgeStyle;rounded=0;orthogonalLoop=1;jettySize=auto;html=1;" edge="1" parent="WIyWlLk6GJQsqaUBKTNV-1" source="hxUd50kTatVPAI0-RMPV-72" target="hxUd50kTatVPAI0-RMPV-79">
          <mxGeometry relative="1" as="geometry" />
        </mxCell>
        <mxCell id="hxUd50kTatVPAI0-RMPV-109" style="edgeStyle=orthogonalEdgeStyle;rounded=0;orthogonalLoop=1;jettySize=auto;html=1;" edge="1" parent="WIyWlLk6GJQsqaUBKTNV-1" source="hxUd50kTatVPAI0-RMPV-72" target="hxUd50kTatVPAI0-RMPV-103">
          <mxGeometry relative="1" as="geometry">
            <Array as="points">
              <mxPoint x="600" y="809" />
              <mxPoint x="600" y="809" />
            </Array>
          </mxGeometry>
        </mxCell>
        <mxCell id="hxUd50kTatVPAI0-RMPV-72" value="DiagramacionDeCampeonato" style="swimlane;fontStyle=2;align=center;verticalAlign=top;childLayout=stackLayout;horizontal=1;startSize=26;horizontalStack=0;resizeParent=1;resizeLast=0;collapsible=1;marginBottom=0;rounded=0;shadow=0;strokeWidth=1;" vertex="1" parent="WIyWlLk6GJQsqaUBKTNV-1">
          <mxGeometry x="430" y="725" width="160" height="184" as="geometry">
            <mxRectangle x="230" y="140" width="160" height="26" as="alternateBounds" />
          </mxGeometry>
        </mxCell>
        <mxCell id="hxUd50kTatVPAI0-RMPV-75" value="" style="line;html=1;strokeWidth=1;align=left;verticalAlign=middle;spacingTop=-1;spacingLeft=3;spacingRight=3;rotatable=0;labelPosition=right;points=[];portConstraint=eastwest;" vertex="1" parent="hxUd50kTatVPAI0-RMPV-72">
          <mxGeometry y="26" width="160" height="8" as="geometry" />
        </mxCell>
        <mxCell id="hxUd50kTatVPAI0-RMPV-78" value="validarCantInscripciones()" style="text;html=1;align=left;verticalAlign=middle;whiteSpace=wrap;rounded=0;" vertex="1" parent="hxUd50kTatVPAI0-RMPV-72">
          <mxGeometry y="34" width="160" height="30" as="geometry" />
        </mxCell>
        <mxCell id="hxUd50kTatVPAI0-RMPV-111" value="crearCampeonato()" style="text;html=1;align=left;verticalAlign=middle;whiteSpace=wrap;rounded=0;" vertex="1" parent="hxUd50kTatVPAI0-RMPV-72">
          <mxGeometry y="64" width="160" height="30" as="geometry" />
        </mxCell>
        <mxCell id="hxUd50kTatVPAI0-RMPV-112" value="crearFechas()" style="text;html=1;align=left;verticalAlign=middle;whiteSpace=wrap;rounded=0;" vertex="1" parent="hxUd50kTatVPAI0-RMPV-72">
          <mxGeometry y="94" width="160" height="30" as="geometry" />
        </mxCell>
        <mxCell id="hxUd50kTatVPAI0-RMPV-77" value="1..*" style="text;html=1;align=center;verticalAlign=middle;whiteSpace=wrap;rounded=0;" vertex="1" parent="WIyWlLk6GJQsqaUBKTNV-1">
          <mxGeometry x="360" y="786" width="20" height="30" as="geometry" />
        </mxCell>
        <mxCell id="hxUd50kTatVPAI0-RMPV-125" style="edgeStyle=orthogonalEdgeStyle;rounded=0;orthogonalLoop=1;jettySize=auto;html=1;" edge="1" parent="WIyWlLk6GJQsqaUBKTNV-1" source="hxUd50kTatVPAI0-RMPV-79" target="hxUd50kTatVPAI0-RMPV-120">
          <mxGeometry relative="1" as="geometry" />
        </mxCell>
        <mxCell id="hxUd50kTatVPAI0-RMPV-145" style="edgeStyle=orthogonalEdgeStyle;rounded=0;orthogonalLoop=1;jettySize=auto;html=1;" edge="1" parent="WIyWlLk6GJQsqaUBKTNV-1" source="hxUd50kTatVPAI0-RMPV-79" target="hxUd50kTatVPAI0-RMPV-34">
          <mxGeometry relative="1" as="geometry" />
        </mxCell>
        <mxCell id="hxUd50kTatVPAI0-RMPV-79" value="Fechas" style="swimlane;fontStyle=2;align=center;verticalAlign=top;childLayout=stackLayout;horizontal=1;startSize=26;horizontalStack=0;resizeParent=1;resizeLast=0;collapsible=1;marginBottom=0;rounded=0;shadow=0;strokeWidth=1;" vertex="1" parent="WIyWlLk6GJQsqaUBKTNV-1">
          <mxGeometry x="430" y="592" width="160" height="103" as="geometry">
            <mxRectangle x="230" y="140" width="160" height="26" as="alternateBounds" />
          </mxGeometry>
        </mxCell>
        <mxCell id="hxUd50kTatVPAI0-RMPV-80" value="" style="line;html=1;strokeWidth=1;align=left;verticalAlign=middle;spacingTop=-1;spacingLeft=3;spacingRight=3;rotatable=0;labelPosition=right;points=[];portConstraint=eastwest;" vertex="1" parent="hxUd50kTatVPAI0-RMPV-79">
          <mxGeometry y="26" width="160" height="8" as="geometry" />
        </mxCell>
        <mxCell id="hxUd50kTatVPAI0-RMPV-149" value="registrarInicioDePartido()" style="text;html=1;align=left;verticalAlign=middle;whiteSpace=wrap;rounded=0;" vertex="1" parent="hxUd50kTatVPAI0-RMPV-79">
          <mxGeometry y="34" width="160" height="30" as="geometry" />
        </mxCell>
        <mxCell id="hxUd50kTatVPAI0-RMPV-151" value="registrarUl&lt;span style=&quot;color: rgba(0, 0, 0, 0); font-family: monospace; font-size: 0px; text-wrap: nowrap;&quot;&gt;%3CmxGraphModel%3E%3Croot%3E%3CmxCell%20id%3D%220%22%2F%3E%3CmxCell%20id%3D%221%22%20parent%3D%220%22%2F%3E%3CmxCell%20id%3D%222%22%20value%3D%22registrarResultados()%22%20style%3D%22text%3Bhtml%3D1%3Balign%3Dleft%3BverticalAlign%3Dmiddle%3BwhiteSpace%3Dwrap%3Brounded%3D0%3B%22%20vertex%3D%221%22%20parent%3D%221%22%3E%3CmxGeometry%20x%3D%22430%22%20y%3D%22488%22%20width%3D%22160%22%20height%3D%2230%22%20as%3D%22geometry%22%2F%3E%3C%2FmxCell%3E%3C%2Froot%3E%3C%2FmxGraphModel%3E&lt;/span&gt;timoPartido()" style="text;html=1;align=left;verticalAlign=middle;whiteSpace=wrap;rounded=0;" vertex="1" parent="hxUd50kTatVPAI0-RMPV-79">
          <mxGeometry y="64" width="160" height="30" as="geometry" />
        </mxCell>
        <mxCell id="hxUd50kTatVPAI0-RMPV-83" value="1..*" style="text;html=1;align=center;verticalAlign=middle;whiteSpace=wrap;rounded=0;" vertex="1" parent="WIyWlLk6GJQsqaUBKTNV-1">
          <mxGeometry x="510" y="694" width="30" height="30" as="geometry" />
        </mxCell>
        <mxCell id="hxUd50kTatVPAI0-RMPV-86" value="itemEspeficico" style="text;html=1;align=center;verticalAlign=middle;whiteSpace=wrap;rounded=0;fillColor=#f8cecc;strokeColor=#b85450;" vertex="1" parent="WIyWlLk6GJQsqaUBKTNV-1">
          <mxGeometry x="362.5" y="170" width="80" height="30" as="geometry" />
        </mxCell>
        <mxCell id="hxUd50kTatVPAI0-RMPV-87" style="edgeStyle=orthogonalEdgeStyle;rounded=0;orthogonalLoop=1;jettySize=auto;html=1;" edge="1" parent="WIyWlLk6GJQsqaUBKTNV-1" source="hxUd50kTatVPAI0-RMPV-88" target="hxUd50kTatVPAI0-RMPV-86">
          <mxGeometry relative="1" as="geometry" />
        </mxCell>
        <mxCell id="hxUd50kTatVPAI0-RMPV-88" value="transaccion" style="text;html=1;align=center;verticalAlign=middle;whiteSpace=wrap;rounded=0;fillColor=#f8cecc;strokeColor=#b85450;" vertex="1" parent="WIyWlLk6GJQsqaUBKTNV-1">
          <mxGeometry x="372.5" y="254" width="60" height="30" as="geometry" />
        </mxCell>
        <mxCell id="hxUd50kTatVPAI0-RMPV-89" value="#5" style="text;html=1;align=center;verticalAlign=middle;whiteSpace=wrap;rounded=0;" vertex="1" parent="WIyWlLk6GJQsqaUBKTNV-1">
          <mxGeometry x="347.5" y="220" width="30" height="30" as="geometry" />
        </mxCell>
        <mxCell id="hxUd50kTatVPAI0-RMPV-98" style="edgeStyle=orthogonalEdgeStyle;rounded=0;orthogonalLoop=1;jettySize=auto;html=1;" edge="1" parent="WIyWlLk6GJQsqaUBKTNV-1" source="hxUd50kTatVPAI0-RMPV-90" target="hxUd50kTatVPAI0-RMPV-93">
          <mxGeometry relative="1" as="geometry">
            <Array as="points">
              <mxPoint x="450" y="1054" />
              <mxPoint x="450" y="1054" />
            </Array>
          </mxGeometry>
        </mxCell>
        <mxCell id="hxUd50kTatVPAI0-RMPV-90" value="Campeonato" style="swimlane;fontStyle=2;align=center;verticalAlign=top;childLayout=stackLayout;horizontal=1;startSize=26;horizontalStack=0;resizeParent=1;resizeLast=0;collapsible=1;marginBottom=0;rounded=0;shadow=0;strokeWidth=1;" vertex="1" parent="WIyWlLk6GJQsqaUBKTNV-1">
          <mxGeometry x="460" y="989" width="160" height="100" as="geometry">
            <mxRectangle x="230" y="140" width="160" height="26" as="alternateBounds" />
          </mxGeometry>
        </mxCell>
        <mxCell id="hxUd50kTatVPAI0-RMPV-91" value="nombre&lt;span style=&quot;color: rgba(0, 0, 0, 0); font-family: monospace; font-size: 0px; text-wrap: nowrap;&quot;&gt;%3CmxGraphModel%3E%3Croot%3E%3CmxCell%20id%3D%220%22%2F%3E%3CmxCell%20id%3D%221%22%20parent%3D%220%22%2F%3E%3CmxCell%20id%3D%222%22%20value%3D%22Partido%22%20style%3D%22swimlane%3BfontStyle%3D2%3Balign%3Dcenter%3BverticalAlign%3Dtop%3BchildLayout%3DstackLayout%3Bhorizontal%3D1%3BstartSize%3D26%3BhorizontalStack%3D0%3BresizeParent%3D1%3BresizeLast%3D0%3Bcollapsible%3D1%3BmarginBottom%3D0%3Brounded%3D0%3Bshadow%3D0%3BstrokeWidth%3D1%3B%22%20vertex%3D%221%22%20parent%3D%221%22%3E%3CmxGeometry%20x%3D%22350%22%20y%3D%2230%22%20width%3D%22160%22%20height%3D%22184%22%20as%3D%22geometry%22%3E%3CmxRectangle%20x%3D%22230%22%20y%3D%22140%22%20width%3D%22160%22%20height%3D%2226%22%20as%3D%22alternateBounds%22%2F%3E%3C%2FmxGeometry%3E%3C%2FmxCell%3E%3CmxCell%20id%3D%223%22%20value%3D%22cancha%22%20style%3D%22text%3Bhtml%3D1%3Balign%3Dleft%3BverticalAlign%3Dmiddle%3BwhiteSpace%3Dwrap%3Brounded%3D0%3B%22%20vertex%3D%221%22%20parent%3D%222%22%3E%3CmxGeometry%20y%3D%2226%22%20width%3D%22160%22%20height%3D%2230%22%20as%3D%22geometry%22%2F%3E%3C%2FmxCell%3E%3CmxCell%20id%3D%224%22%20value%3D%22arbitro%3A%20Arbitro%22%20style%3D%22text%3Bhtml%3D1%3Balign%3Dleft%3BverticalAlign%3Dmiddle%3BwhiteSpace%3Dwrap%3Brounded%3D0%3B%22%20vertex%3D%221%22%20parent%3D%222%22%3E%3CmxGeometry%20y%3D%2256%22%20width%3D%22160%22%20height%3D%2230%22%20as%3D%22geometry%22%2F%3E%3C%2FmxCell%3E%3CmxCell%20id%3D%225%22%20value%3D%22%22%20style%3D%22line%3Bhtml%3D1%3BstrokeWidth%3D1%3Balign%3Dleft%3BverticalAlign%3Dmiddle%3BspacingTop%3D-1%3BspacingLeft%3D3%3BspacingRight%3D3%3Brotatable%3D0%3BlabelPosition%3Dright%3Bpoints%3D%5B%5D%3BportConstraint%3Deastwest%3B%22%20vertex%3D%221%22%20parent%3D%222%22%3E%3CmxGeometry%20y%3D%2286%22%20width%3D%22160%22%20height%3D%228%22%20as%3D%22geometry%22%2F%3E%3C%2FmxCell%3E%3CmxCell%20id%3D%226%22%20value%3D%22validarComienzoCampenato()%22%20style%3D%22text%3Bhtml%3D1%3Balign%3Dleft%3BverticalAlign%3Dmiddle%3BwhiteSpace%3Dwrap%3Brounded%3D0%3B%22%20vertex%3D%221%22%20parent%3D%222%22%3E%3CmxGeometry%20y%3D%2294%22%20width%3D%22160%22%20height%3D%2230%22%20as%3D%22geometry%22%2F%3E%3C%2FmxCell%3E%3CmxCell%20id%3D%227%22%20value%3D%22inscribir()%22%20style%3D%22text%3Bhtml%3D1%3Balign%3Dleft%3BverticalAlign%3Dmiddle%3BwhiteSpace%3Dwrap%3Brounded%3D0%3B%22%20vertex%3D%221%22%20parent%3D%222%22%3E%3CmxGeometry%20y%3D%22124%22%20width%3D%22160%22%20height%3D%2230%22%20as%3D%22geometry%22%2F%3E%3C%2FmxCell%3E%3C%2Froot%3E%3C%2FmxGraphModel%3E&lt;/span&gt;" style="text;html=1;align=left;verticalAlign=middle;whiteSpace=wrap;rounded=0;" vertex="1" parent="hxUd50kTatVPAI0-RMPV-90">
          <mxGeometry y="26" width="160" height="30" as="geometry" />
        </mxCell>
        <mxCell id="hxUd50kTatVPAI0-RMPV-92" value="" style="line;html=1;strokeWidth=1;align=left;verticalAlign=middle;spacingTop=-1;spacingLeft=3;spacingRight=3;rotatable=0;labelPosition=right;points=[];portConstraint=eastwest;" vertex="1" parent="hxUd50kTatVPAI0-RMPV-90">
          <mxGeometry y="56" width="160" height="8" as="geometry" />
        </mxCell>
        <mxCell id="hxUd50kTatVPAI0-RMPV-97" value="crearCampeonato()" style="text;html=1;align=left;verticalAlign=middle;whiteSpace=wrap;rounded=0;" vertex="1" parent="hxUd50kTatVPAI0-RMPV-90">
          <mxGeometry y="64" width="160" height="30" as="geometry" />
        </mxCell>
        <mxCell id="hxUd50kTatVPAI0-RMPV-93" value="Estado" style="swimlane;fontStyle=2;align=center;verticalAlign=top;childLayout=stackLayout;horizontal=1;startSize=26;horizontalStack=0;resizeParent=1;resizeLast=0;collapsible=1;marginBottom=0;rounded=0;shadow=0;strokeWidth=1;" vertex="1" parent="WIyWlLk6GJQsqaUBKTNV-1">
          <mxGeometry x="250" y="924" width="160" height="210" as="geometry">
            <mxRectangle x="230" y="140" width="160" height="26" as="alternateBounds" />
          </mxGeometry>
        </mxCell>
        <mxCell id="hxUd50kTatVPAI0-RMPV-94" value="vigente" style="text;html=1;align=left;verticalAlign=middle;whiteSpace=wrap;rounded=0;" vertex="1" parent="hxUd50kTatVPAI0-RMPV-93">
          <mxGeometry y="26" width="160" height="30" as="geometry" />
        </mxCell>
        <mxCell id="hxUd50kTatVPAI0-RMPV-138" value="enCurso&lt;span style=&quot;color: rgba(0, 0, 0, 0); font-family: monospace; font-size: 0px; text-wrap: nowrap;&quot;&gt;%3CmxGraphModel%3E%3Croot%3E%3CmxCell%20id%3D%220%22%2F%3E%3CmxCell%20id%3D%221%22%20parent%3D%220%22%2F%3E%3CmxCell%20id%3D%222%22%20value%3D%22vigente%22%20style%3D%22text%3Bhtml%3D1%3Balign%3Dleft%3BverticalAlign%3Dmiddle%3BwhiteSpace%3Dwrap%3Brounded%3D0%3B%22%20vertex%3D%221%22%20parent%3D%221%22%3E%3CmxGeometry%20x%3D%22350%22%20y%3D%22586%22%20width%3D%22160%22%20height%3D%2230%22%20as%3D%22geometry%22%2F%3E%3C%2FmxCell%3E%3C%2Froot%3E%3C%2FmxGraphModel%3E&lt;/span&gt;" style="text;html=1;align=left;verticalAlign=middle;whiteSpace=wrap;rounded=0;" vertex="1" parent="hxUd50kTatVPAI0-RMPV-93">
          <mxGeometry y="56" width="160" height="30" as="geometry" />
        </mxCell>
        <mxCell id="hxUd50kTatVPAI0-RMPV-100" value="enCurso&lt;span style=&quot;color: rgba(0, 0, 0, 0); font-family: monospace; font-size: 0px; text-wrap: nowrap;&quot;&gt;%3CmxGraphModel%3E%3Croot%3E%3CmxCell%20id%3D%220%22%2F%3E%3CmxCell%20id%3D%221%22%20parent%3D%220%22%2F%3E%3CmxCell%20id%3D%222%22%20value%3D%22vigente%22%20style%3D%22text%3Bhtml%3D1%3Balign%3Dleft%3BverticalAlign%3Dmiddle%3BwhiteSpace%3Dwrap%3Brounded%3D0%3B%22%20vertex%3D%221%22%20parent%3D%221%22%3E%3CmxGeometry%20x%3D%22350%22%20y%3D%22586%22%20width%3D%22160%22%20height%3D%2230%22%20as%3D%22geometry%22%2F%3E%3C%2FmxCell%3E%3C%2Froot%3E%3C%2FmxGraphModel%3E&lt;/span&gt;" style="text;html=1;align=left;verticalAlign=middle;whiteSpace=wrap;rounded=0;" vertex="1" parent="hxUd50kTatVPAI0-RMPV-93">
          <mxGeometry y="86" width="160" height="30" as="geometry" />
        </mxCell>
        <mxCell id="hxUd50kTatVPAI0-RMPV-101" value="finalizado" style="text;html=1;align=left;verticalAlign=middle;whiteSpace=wrap;rounded=0;" vertex="1" parent="hxUd50kTatVPAI0-RMPV-93">
          <mxGeometry y="116" width="160" height="30" as="geometry" />
        </mxCell>
        <mxCell id="hxUd50kTatVPAI0-RMPV-95" value="" style="line;html=1;strokeWidth=1;align=left;verticalAlign=middle;spacingTop=-1;spacingLeft=3;spacingRight=3;rotatable=0;labelPosition=right;points=[];portConstraint=eastwest;" vertex="1" parent="hxUd50kTatVPAI0-RMPV-93">
          <mxGeometry y="146" width="160" height="8" as="geometry" />
        </mxCell>
        <mxCell id="hxUd50kTatVPAI0-RMPV-96" value="getNombre()" style="text;html=1;align=left;verticalAlign=middle;whiteSpace=wrap;rounded=0;" vertex="1" parent="hxUd50kTatVPAI0-RMPV-93">
          <mxGeometry y="154" width="160" height="30" as="geometry" />
        </mxCell>
        <mxCell id="hxUd50kTatVPAI0-RMPV-119" value="esFinal()" style="text;html=1;align=left;verticalAlign=middle;whiteSpace=wrap;rounded=0;" vertex="1" parent="hxUd50kTatVPAI0-RMPV-93">
          <mxGeometry y="184" width="160" height="26" as="geometry" />
        </mxCell>
        <mxCell id="hxUd50kTatVPAI0-RMPV-99" value="1" style="text;html=1;align=center;verticalAlign=middle;whiteSpace=wrap;rounded=0;" vertex="1" parent="WIyWlLk6GJQsqaUBKTNV-1">
          <mxGeometry x="410" y="1024" width="20" height="30" as="geometry" />
        </mxCell>
        <mxCell id="hxUd50kTatVPAI0-RMPV-102" style="edgeStyle=orthogonalEdgeStyle;rounded=0;orthogonalLoop=1;jettySize=auto;html=1;entryX=0.405;entryY=0.013;entryDx=0;entryDy=0;entryPerimeter=0;" edge="1" parent="WIyWlLk6GJQsqaUBKTNV-1" source="hxUd50kTatVPAI0-RMPV-72" target="hxUd50kTatVPAI0-RMPV-90">
          <mxGeometry relative="1" as="geometry">
            <Array as="points">
              <mxPoint x="525" y="932" />
              <mxPoint x="525" y="932" />
            </Array>
          </mxGeometry>
        </mxCell>
        <mxCell id="hxUd50kTatVPAI0-RMPV-103" value="Estado" style="swimlane;fontStyle=2;align=center;verticalAlign=top;childLayout=stackLayout;horizontal=1;startSize=26;horizontalStack=0;resizeParent=1;resizeLast=0;collapsible=1;marginBottom=0;rounded=0;shadow=0;strokeWidth=1;" vertex="1" parent="WIyWlLk6GJQsqaUBKTNV-1">
          <mxGeometry x="620" y="732" width="100" height="154" as="geometry">
            <mxRectangle x="230" y="140" width="160" height="26" as="alternateBounds" />
          </mxGeometry>
        </mxCell>
        <mxCell id="hxUd50kTatVPAI0-RMPV-105" value="completado" style="text;html=1;align=left;verticalAlign=middle;whiteSpace=wrap;rounded=0;" vertex="1" parent="hxUd50kTatVPAI0-RMPV-103">
          <mxGeometry y="26" width="100" height="30" as="geometry" />
        </mxCell>
        <mxCell id="hxUd50kTatVPAI0-RMPV-106" value="incompleto" style="text;html=1;align=left;verticalAlign=middle;whiteSpace=wrap;rounded=0;" vertex="1" parent="hxUd50kTatVPAI0-RMPV-103">
          <mxGeometry y="56" width="100" height="30" as="geometry" />
        </mxCell>
        <mxCell id="hxUd50kTatVPAI0-RMPV-107" value="" style="line;html=1;strokeWidth=1;align=left;verticalAlign=middle;spacingTop=-1;spacingLeft=3;spacingRight=3;rotatable=0;labelPosition=right;points=[];portConstraint=eastwest;" vertex="1" parent="hxUd50kTatVPAI0-RMPV-103">
          <mxGeometry y="86" width="100" height="8" as="geometry" />
        </mxCell>
        <mxCell id="hxUd50kTatVPAI0-RMPV-108" value="getNombre()" style="text;html=1;align=left;verticalAlign=middle;whiteSpace=wrap;rounded=0;" vertex="1" parent="hxUd50kTatVPAI0-RMPV-103">
          <mxGeometry y="94" width="100" height="30" as="geometry" />
        </mxCell>
        <mxCell id="hxUd50kTatVPAI0-RMPV-110" value="1" style="text;html=1;align=center;verticalAlign=middle;whiteSpace=wrap;rounded=0;" vertex="1" parent="WIyWlLk6GJQsqaUBKTNV-1">
          <mxGeometry x="600" y="782" width="20" height="30" as="geometry" />
        </mxCell>
        <mxCell id="hxUd50kTatVPAI0-RMPV-113" value="Estado" style="swimlane;fontStyle=2;align=center;verticalAlign=top;childLayout=stackLayout;horizontal=1;startSize=26;horizontalStack=0;resizeParent=1;resizeLast=0;collapsible=1;marginBottom=0;rounded=0;shadow=0;strokeWidth=1;" vertex="1" parent="WIyWlLk6GJQsqaUBKTNV-1">
          <mxGeometry x="250" y="356" width="100" height="154" as="geometry">
            <mxRectangle x="230" y="140" width="160" height="26" as="alternateBounds" />
          </mxGeometry>
        </mxCell>
        <mxCell id="hxUd50kTatVPAI0-RMPV-114" value="jugado" style="text;html=1;align=left;verticalAlign=middle;whiteSpace=wrap;rounded=0;" vertex="1" parent="hxUd50kTatVPAI0-RMPV-113">
          <mxGeometry y="26" width="100" height="30" as="geometry" />
        </mxCell>
        <mxCell id="hxUd50kTatVPAI0-RMPV-116" value="" style="line;html=1;strokeWidth=1;align=left;verticalAlign=middle;spacingTop=-1;spacingLeft=3;spacingRight=3;rotatable=0;labelPosition=right;points=[];portConstraint=eastwest;" vertex="1" parent="hxUd50kTatVPAI0-RMPV-113">
          <mxGeometry y="56" width="100" height="8" as="geometry" />
        </mxCell>
        <mxCell id="hxUd50kTatVPAI0-RMPV-117" value="getNombre()" style="text;html=1;align=left;verticalAlign=middle;whiteSpace=wrap;rounded=0;" vertex="1" parent="hxUd50kTatVPAI0-RMPV-113">
          <mxGeometry y="64" width="100" height="30" as="geometry" />
        </mxCell>
        <mxCell id="hxUd50kTatVPAI0-RMPV-120" value="Estado" style="swimlane;fontStyle=2;align=center;verticalAlign=top;childLayout=stackLayout;horizontal=1;startSize=26;horizontalStack=0;resizeParent=1;resizeLast=0;collapsible=1;marginBottom=0;rounded=0;shadow=0;strokeWidth=1;" vertex="1" parent="WIyWlLk6GJQsqaUBKTNV-1">
          <mxGeometry x="250" y="548" width="100" height="154" as="geometry">
            <mxRectangle x="230" y="140" width="160" height="26" as="alternateBounds" />
          </mxGeometry>
        </mxCell>
        <mxCell id="hxUd50kTatVPAI0-RMPV-121" value="enCurso" style="text;html=1;align=left;verticalAlign=middle;whiteSpace=wrap;rounded=0;" vertex="1" parent="hxUd50kTatVPAI0-RMPV-120">
          <mxGeometry y="26" width="100" height="30" as="geometry" />
        </mxCell>
        <mxCell id="hxUd50kTatVPAI0-RMPV-122" value="cumplimentada" style="text;html=1;align=left;verticalAlign=middle;whiteSpace=wrap;rounded=0;" vertex="1" parent="hxUd50kTatVPAI0-RMPV-120">
          <mxGeometry y="56" width="100" height="30" as="geometry" />
        </mxCell>
        <mxCell id="hxUd50kTatVPAI0-RMPV-123" value="" style="line;html=1;strokeWidth=1;align=left;verticalAlign=middle;spacingTop=-1;spacingLeft=3;spacingRight=3;rotatable=0;labelPosition=right;points=[];portConstraint=eastwest;" vertex="1" parent="hxUd50kTatVPAI0-RMPV-120">
          <mxGeometry y="86" width="100" height="8" as="geometry" />
        </mxCell>
        <mxCell id="hxUd50kTatVPAI0-RMPV-124" value="getNombre()" style="text;html=1;align=left;verticalAlign=middle;whiteSpace=wrap;rounded=0;" vertex="1" parent="hxUd50kTatVPAI0-RMPV-120">
          <mxGeometry y="94" width="100" height="30" as="geometry" />
        </mxCell>
        <mxCell id="hxUd50kTatVPAI0-RMPV-133" style="edgeStyle=orthogonalEdgeStyle;rounded=0;orthogonalLoop=1;jettySize=auto;html=1;" edge="1" parent="WIyWlLk6GJQsqaUBKTNV-1" source="hxUd50kTatVPAI0-RMPV-127" target="hxUd50kTatVPAI0-RMPV-79">
          <mxGeometry relative="1" as="geometry">
            <Array as="points">
              <mxPoint x="670" y="619" />
              <mxPoint x="670" y="619" />
            </Array>
          </mxGeometry>
        </mxCell>
        <mxCell id="hxUd50kTatVPAI0-RMPV-134" style="edgeStyle=orthogonalEdgeStyle;rounded=0;orthogonalLoop=1;jettySize=auto;html=1;" edge="1" parent="WIyWlLk6GJQsqaUBKTNV-1" source="hxUd50kTatVPAI0-RMPV-127" target="hxUd50kTatVPAI0-RMPV-90">
          <mxGeometry relative="1" as="geometry">
            <Array as="points">
              <mxPoint x="800" y="1042" />
            </Array>
          </mxGeometry>
        </mxCell>
        <mxCell id="hxUd50kTatVPAI0-RMPV-127" value="Resultados" style="swimlane;fontStyle=2;align=center;verticalAlign=top;childLayout=stackLayout;horizontal=1;startSize=26;horizontalStack=0;resizeParent=1;resizeLast=0;collapsible=1;marginBottom=0;rounded=0;shadow=0;strokeWidth=1;" vertex="1" parent="WIyWlLk6GJQsqaUBKTNV-1">
          <mxGeometry x="680" y="540" width="140" height="154" as="geometry">
            <mxRectangle x="230" y="140" width="160" height="26" as="alternateBounds" />
          </mxGeometry>
        </mxCell>
        <mxCell id="hxUd50kTatVPAI0-RMPV-130" value="" style="line;html=1;strokeWidth=1;align=left;verticalAlign=middle;spacingTop=-1;spacingLeft=3;spacingRight=3;rotatable=0;labelPosition=right;points=[];portConstraint=eastwest;" vertex="1" parent="hxUd50kTatVPAI0-RMPV-127">
          <mxGeometry y="26" width="140" height="8" as="geometry" />
        </mxCell>
        <mxCell id="hxUd50kTatVPAI0-RMPV-136" value="registrarInicioDePartido()" style="text;html=1;align=left;verticalAlign=middle;whiteSpace=wrap;rounded=0;" vertex="1" parent="hxUd50kTatVPAI0-RMPV-127">
          <mxGeometry y="34" width="140" height="30" as="geometry" />
        </mxCell>
        <mxCell id="hxUd50kTatVPAI0-RMPV-144" value="registrarUl&lt;span style=&quot;color: rgba(0, 0, 0, 0); font-family: monospace; font-size: 0px; text-wrap: nowrap;&quot;&gt;%3CmxGraphModel%3E%3Croot%3E%3CmxCell%20id%3D%220%22%2F%3E%3CmxCell%20id%3D%221%22%20parent%3D%220%22%2F%3E%3CmxCell%20id%3D%222%22%20value%3D%22registrarResultados()%22%20style%3D%22text%3Bhtml%3D1%3Balign%3Dleft%3BverticalAlign%3Dmiddle%3BwhiteSpace%3Dwrap%3Brounded%3D0%3B%22%20vertex%3D%221%22%20parent%3D%221%22%3E%3CmxGeometry%20x%3D%22430%22%20y%3D%22488%22%20width%3D%22160%22%20height%3D%2230%22%20as%3D%22geometry%22%2F%3E%3C%2FmxCell%3E%3C%2Froot%3E%3C%2FmxGraphModel%3E&lt;/span&gt;timoPartido()" style="text;html=1;align=left;verticalAlign=middle;whiteSpace=wrap;rounded=0;" vertex="1" parent="hxUd50kTatVPAI0-RMPV-127">
          <mxGeometry y="64" width="140" height="30" as="geometry" />
        </mxCell>
        <mxCell id="hxUd50kTatVPAI0-RMPV-132" style="edgeStyle=orthogonalEdgeStyle;rounded=0;orthogonalLoop=1;jettySize=auto;html=1;" edge="1" parent="WIyWlLk6GJQsqaUBKTNV-1" source="hxUd50kTatVPAI0-RMPV-35" target="hxUd50kTatVPAI0-RMPV-127">
          <mxGeometry relative="1" as="geometry" />
        </mxCell>
        <mxCell id="hxUd50kTatVPAI0-RMPV-139" value="1" style="text;html=1;align=center;verticalAlign=middle;whiteSpace=wrap;rounded=0;" vertex="1" parent="WIyWlLk6GJQsqaUBKTNV-1">
          <mxGeometry x="530" y="954" width="20" height="30" as="geometry" />
        </mxCell>
        <mxCell id="hxUd50kTatVPAI0-RMPV-140" value="1" style="text;html=1;align=center;verticalAlign=middle;whiteSpace=wrap;rounded=0;" vertex="1" parent="WIyWlLk6GJQsqaUBKTNV-1">
          <mxGeometry x="630" y="1012" width="20" height="30" as="geometry" />
        </mxCell>
        <mxCell id="hxUd50kTatVPAI0-RMPV-141" value="1" style="text;html=1;align=center;verticalAlign=middle;whiteSpace=wrap;rounded=0;" vertex="1" parent="WIyWlLk6GJQsqaUBKTNV-1">
          <mxGeometry x="590" y="592" width="20" height="30" as="geometry" />
        </mxCell>
        <mxCell id="hxUd50kTatVPAI0-RMPV-142" value="1" style="text;html=1;align=center;verticalAlign=middle;whiteSpace=wrap;rounded=0;" vertex="1" parent="WIyWlLk6GJQsqaUBKTNV-1">
          <mxGeometry x="750" y="510" width="20" height="30" as="geometry" />
        </mxCell>
        <mxCell id="hxUd50kTatVPAI0-RMPV-146" value="1" style="text;html=1;align=center;verticalAlign=middle;whiteSpace=wrap;rounded=0;" vertex="1" parent="WIyWlLk6GJQsqaUBKTNV-1">
          <mxGeometry x="350" y="592" width="20" height="30" as="geometry" />
        </mxCell>
        <mxCell id="hxUd50kTatVPAI0-RMPV-147" value="1" style="text;html=1;align=center;verticalAlign=middle;whiteSpace=wrap;rounded=0;" vertex="1" parent="WIyWlLk6GJQsqaUBKTNV-1">
          <mxGeometry x="350" y="418" width="20" height="30" as="geometry" />
        </mxCell>
        <mxCell id="hxUd50kTatVPAI0-RMPV-150" value="1..*" style="text;html=1;align=center;verticalAlign=middle;whiteSpace=wrap;rounded=0;" vertex="1" parent="WIyWlLk6GJQsqaUBKTNV-1">
          <mxGeometry x="510" y="556" width="20" height="30" as="geometry" />
        </mxCell>
        <mxCell id="hxUd50kTatVPAI0-RMPV-153" style="edgeStyle=orthogonalEdgeStyle;rounded=0;orthogonalLoop=1;jettySize=auto;html=1;fillColor=#f8cecc;strokeColor=#b85450;" edge="1" parent="WIyWlLk6GJQsqaUBKTNV-1" target="zkfFHV4jXpPFQw0GAbJ--0">
          <mxGeometry relative="1" as="geometry">
            <mxPoint x="750" y="539" as="sourcePoint" />
            <mxPoint x="19.3599999999999" y="351.32000000000005" as="targetPoint" />
            <Array as="points">
              <mxPoint x="780" y="539" />
              <mxPoint x="780" y="20" />
              <mxPoint x="310" y="20" />
              <mxPoint x="310" y="310" />
              <mxPoint x="200" y="310" />
              <mxPoint x="200" y="601" />
            </Array>
          </mxGeometry>
        </mxCell>
        <mxCell id="hxUd50kTatVPAI0-RMPV-154" value="administrador" style="shape=umlActor;verticalLabelPosition=bottom;verticalAlign=top;html=1;outlineConnect=0;" vertex="1" parent="WIyWlLk6GJQsqaUBKTNV-1">
          <mxGeometry x="85" y="1540" width="30" height="60" as="geometry" />
        </mxCell>
        <mxCell id="hxUd50kTatVPAI0-RMPV-155" value="club" style="shape=umlActor;verticalLabelPosition=bottom;verticalAlign=top;html=1;outlineConnect=0;" vertex="1" parent="WIyWlLk6GJQsqaUBKTNV-1">
          <mxGeometry x="85" y="1740" width="30" height="60" as="geometry" />
        </mxCell>
      </root>
    </mxGraphModel>
  </diagram>
</mxfile>
